<svg width="203" height="40" viewBox="0 0 203 40" fill="none" xmlns="http://www.w3.org/2000/svg">
<path fill-rule="evenodd" clip-rule="evenodd" d="M1.95262 8.61929C3.20286 7.36905 4.89856 6.66667 6.66667 6.66667H10.5733C12.3413 6.66629 14.0367 5.96366 15.2867 4.71333L18.0467 1.95333C19.2966 0.703004 20.992 0.000377583 22.76 0H30.5733C32.3413 0.000377583 34.0367 0.703004 35.2867 1.95333L38.0467 4.71333C39.2966 5.96366 40.992 6.66629 42.76 6.66667H46.6667C48.4348 6.66667 50.1305 7.36905 51.3807 8.61929C52.631 9.86953 53.3333 11.5652 53.3333 13.3333V33.3333C53.3333 35.1014 52.631 36.7971 51.3807 38.0474C50.1305 39.2976 48.4348 40 46.6667 40H19.3827V30.7802C21.4406 32.425 24.0068 33.3333 26.6667 33.3333C29.7609 33.3333 32.7283 32.1042 34.9162 29.9162C37.1042 27.7283 38.3333 24.7609 38.3333 21.6667C38.3333 18.5725 37.1042 15.605 34.9162 13.4171C32.7283 11.2292 29.7609 10 26.6667 10C24.0067 10 21.4403 10.9084 19.3824 12.5534C19.3615 11.3442 18.3747 10.3704 17.1605 10.3704C15.9332 10.3704 14.9383 11.3653 14.9383 12.5926V40H6.66667C4.89856 40 3.20286 39.2976 1.95262 38.0474C0.702379 36.7971 0 35.1014 0 33.3333V13.3333C0 11.5652 0.702379 9.86953 1.95262 8.61929ZM7.15482 12.8452C7.46738 13.1577 7.89131 13.3333 8.33333 13.3333C8.77536 13.3333 9.19928 13.1577 9.51184 12.8452C9.8244 12.5326 10 12.1087 10 11.6667C10 11.2246 9.8244 10.8007 9.51184 10.4882C9.19928 10.1756 8.77536 10 8.33333 10C7.89131 10 7.46738 10.1756 7.15482 10.4882C6.84226 10.8007 6.66667 11.2246 6.66667 11.6667C6.66667 12.1087 6.84226 12.5326 7.15482 12.8452Z" fill="#F59E0B"/>
<path d="M33.9506 21.6667C33.9506 23.5821 33.1897 25.4191 31.8353 26.7735C30.4808 28.128 28.6438 28.8889 26.7284 28.8889C24.8129 28.8889 22.9759 28.128 21.6215 26.7735C20.2671 25.4191 19.5062 23.5821 19.5062 21.6667C19.5062 19.7512 20.2671 17.9142 21.6215 16.5598C22.9759 15.2054 24.8129 14.4444 26.7284 14.4444C28.6438 14.4444 30.4808 15.2054 31.8353 16.5598C33.1897 17.9142 33.9506 19.7512 33.9506 21.6667Z" fill="#F59E0B"/>
<path d="M64.475 32.8V13.0182H73.0136C74.4818 13.0182 75.7665 13.308 76.8676 13.8875C77.9688 14.467 78.8252 15.2816 79.4369 16.3313C80.0487 17.3809 80.3545 18.6076 80.3545 20.0114C80.3545 21.428 80.039 22.6547 79.408 23.6915C78.7833 24.7282 77.9044 25.5267 76.771 26.0869C75.6441 26.6472 74.3273 26.9273 72.8205 26.9273H67.7205V22.7545H71.7386C72.3697 22.7545 72.9074 22.6451 73.3517 22.4261C73.8025 22.2008 74.147 21.882 74.3852 21.4699C74.6299 21.0578 74.7523 20.5716 74.7523 20.0114C74.7523 19.4447 74.6299 18.9617 74.3852 18.5625C74.147 18.1568 73.8025 17.8477 73.3517 17.6352C72.9074 17.4163 72.3697 17.3068 71.7386 17.3068H69.8455V32.8H64.475Z" fill="#F59E0B"/>
<path d="M82.4023 32.8V17.9636H87.7341V32.8H82.4023ZM85.0682 16.4182C84.347 16.4182 83.7288 16.1799 83.2136 15.7034C82.6985 15.2269 82.4409 14.6538 82.4409 13.9841C82.4409 13.3144 82.6985 12.7413 83.2136 12.2648C83.7288 11.7883 84.347 11.55 85.0682 11.55C85.7958 11.55 86.414 11.7883 86.9227 12.2648C87.4379 12.7413 87.6955 13.3144 87.6955 13.9841C87.6955 14.6538 87.4379 15.2269 86.9227 15.7034C86.414 16.1799 85.7958 16.4182 85.0682 16.4182Z" fill="#F59E0B"/>
<path d="M97.5984 33.0705C95.9886 33.0705 94.6106 32.7517 93.4643 32.1142C92.3181 31.4703 91.4392 30.5752 90.8274 29.429C90.2157 28.2763 89.9098 26.9402 89.9098 25.4205C89.9098 23.9008 90.2157 22.5678 90.8274 21.4216C91.4392 20.2689 92.3181 19.3739 93.4643 18.7364C94.6106 18.0924 95.9886 17.7705 97.5984 17.7705C99.0537 17.7705 100.313 18.0345 101.375 18.5625C102.444 19.0841 103.272 19.8246 103.858 20.7841C104.444 21.7371 104.74 22.8576 104.746 24.1455H99.8007C99.7299 23.3663 99.5045 22.7739 99.1246 22.3682C98.7511 21.9561 98.2681 21.75 97.6757 21.75C97.2121 21.75 96.8064 21.8852 96.4587 22.1557C96.1109 22.4197 95.8405 22.8222 95.6473 23.3631C95.4541 23.8975 95.3575 24.5705 95.3575 25.3818C95.3575 26.1932 95.4541 26.8693 95.6473 27.4102C95.8405 27.9447 96.1109 28.3472 96.4587 28.6176C96.8064 28.8816 97.2121 29.0136 97.6757 29.0136C98.0685 29.0136 98.4162 28.9235 98.7189 28.7432C99.0215 28.5564 99.2662 28.286 99.453 27.9318C99.6462 27.5712 99.7621 27.1333 99.8007 26.6182H104.746C104.727 27.9254 104.427 29.0652 103.848 30.0375C103.268 31.0034 102.447 31.7504 101.385 32.2784C100.329 32.8064 99.0666 33.0705 97.5984 33.0705Z" fill="#F59E0B"/>
<path d="M106.869 32.8V13.0182H112.239V21.0159H112.51L118.46 13.0182H124.719L118.035 21.8273L124.873 32.8H118.46L114.016 25.3818L112.239 27.7V32.8H106.869Z" fill="#F59E0B"/>
<path d="M132.41 33.0705C130.826 33.0705 129.461 32.7678 128.314 32.1625C127.175 31.5508 126.296 30.675 125.677 29.5352C125.066 28.389 124.76 27.0174 124.76 25.4205C124.76 23.8879 125.069 22.5485 125.687 21.4023C126.305 20.2561 127.178 19.3642 128.305 18.7267C129.432 18.0892 130.761 17.7705 132.294 17.7705C133.414 17.7705 134.429 17.9443 135.337 18.292C136.244 18.6398 137.02 19.1453 137.664 19.8085C138.308 20.4653 138.804 21.2638 139.152 22.204C139.5 23.1441 139.673 24.2034 139.673 25.3818V26.6182H126.421V23.6818H134.767C134.76 23.2568 134.651 22.8833 134.438 22.5614C134.232 22.233 133.952 21.9786 133.598 21.7983C133.25 21.6116 132.854 21.5182 132.41 21.5182C131.978 21.5182 131.582 21.6116 131.222 21.7983C130.861 21.9786 130.571 22.2297 130.352 22.5517C130.14 22.8737 130.027 23.2504 130.014 23.6818V26.85C130.014 27.3265 130.114 27.7515 130.314 28.125C130.513 28.4985 130.8 28.7915 131.173 29.004C131.547 29.2165 131.998 29.3227 132.526 29.3227C132.893 29.3227 133.228 29.2712 133.53 29.1682C133.839 29.0652 134.103 28.917 134.322 28.7239C134.541 28.5242 134.702 28.286 134.805 28.0091H139.673C139.506 29.0394 139.11 29.9345 138.485 30.6943C137.861 31.4477 137.033 32.0337 136.003 32.4523C134.979 32.8644 133.781 33.0705 132.41 33.0705Z" fill="#F59E0B"/>
<path d="M148.958 33.0705C147.374 33.0705 146.009 32.7678 144.863 32.1625C143.723 31.5508 142.844 30.675 142.226 29.5352C141.614 28.389 141.308 27.0174 141.308 25.4205C141.308 23.8879 141.617 22.5485 142.236 21.4023C142.854 20.2561 143.726 19.3642 144.853 18.7267C145.98 18.0892 147.31 17.7705 148.842 17.7705C149.963 17.7705 150.977 17.9443 151.885 18.292C152.793 18.6398 153.569 19.1453 154.213 19.8085C154.857 20.4653 155.353 21.2638 155.7 22.204C156.048 23.1441 156.222 24.2034 156.222 25.3818V26.6182H142.97V23.6818H151.315C151.309 23.2568 151.199 22.8833 150.987 22.5614C150.781 22.233 150.5 21.9786 150.146 21.7983C149.799 21.6116 149.403 21.5182 148.958 21.5182C148.527 21.5182 148.131 21.6116 147.77 21.7983C147.41 21.9786 147.12 22.2297 146.901 22.5517C146.688 22.8737 146.576 23.2504 146.563 23.6818V26.85C146.563 27.3265 146.663 27.7515 146.862 28.125C147.062 28.4985 147.348 28.7915 147.722 29.004C148.095 29.2165 148.546 29.3227 149.074 29.3227C149.441 29.3227 149.776 29.2712 150.079 29.1682C150.388 29.0652 150.652 28.917 150.871 28.7239C151.09 28.5242 151.251 28.286 151.354 28.0091H156.222C156.054 29.0394 155.658 29.9345 155.034 30.6943C154.409 31.4477 153.582 32.0337 152.551 32.4523C151.528 32.8644 150.33 33.0705 148.958 33.0705Z" fill="#F59E0B"/>
<path d="M158.398 38.3636V17.9636H163.691V20.5523H163.807C164 20.05 164.283 19.5896 164.657 19.171C165.03 18.746 165.494 18.408 166.048 18.1568C166.601 17.8992 167.245 17.7705 167.979 17.7705C168.958 17.7705 169.889 18.0312 170.771 18.5528C171.66 19.0744 172.381 19.8955 172.935 21.0159C173.495 22.1364 173.775 23.5917 173.775 25.3818C173.775 27.0947 173.508 28.5146 172.973 29.6415C172.445 30.7684 171.737 31.6087 170.848 32.1625C169.966 32.7163 168.997 32.9932 167.941 32.9932C167.245 32.9932 166.624 32.8805 166.077 32.6551C165.536 32.4233 165.072 32.111 164.686 31.7182C164.306 31.3189 164.013 30.8682 163.807 30.3659H163.729V38.3636H158.398ZM163.613 25.3818C163.613 26.103 163.707 26.7277 163.894 27.2557C164.087 27.7773 164.357 28.183 164.705 28.4727C165.059 28.7561 165.481 28.8977 165.97 28.8977C166.46 28.8977 166.875 28.7593 167.216 28.4824C167.564 28.1991 167.828 27.7966 168.008 27.275C168.195 26.747 168.288 26.1159 168.288 25.3818C168.288 24.6477 168.195 24.0199 168.008 23.4983C167.828 22.9703 167.564 22.5678 167.216 22.2909C166.875 22.0076 166.46 21.8659 165.97 21.8659C165.481 21.8659 165.059 22.0076 164.705 22.2909C164.357 22.5678 164.087 22.9703 163.894 23.4983C163.707 24.0199 163.613 24.6477 163.613 25.3818Z" fill="#F59E0B"/>
<path d="M183.118 33.0705C181.534 33.0705 180.168 32.7678 179.022 32.1625C177.882 31.5508 177.003 30.675 176.385 29.5352C175.773 28.389 175.468 27.0174 175.468 25.4205C175.468 23.8879 175.777 22.5485 176.395 21.4023C177.013 20.2561 177.886 19.3642 179.012 18.7267C180.139 18.0892 181.469 17.7705 183.002 17.7705C184.122 17.7705 185.136 17.9443 186.044 18.292C186.952 18.6398 187.728 19.1453 188.372 19.8085C189.016 20.4653 189.512 21.2638 189.86 22.204C190.207 23.1441 190.381 24.2034 190.381 25.3818V26.6182H177.129V23.6818H185.474C185.468 23.2568 185.359 22.8833 185.146 22.5614C184.94 22.233 184.66 21.9786 184.306 21.7983C183.958 21.6116 183.562 21.5182 183.118 21.5182C182.686 21.5182 182.29 21.6116 181.93 21.7983C181.569 21.9786 181.279 22.2297 181.06 22.5517C180.848 22.8737 180.735 23.2504 180.722 23.6818V26.85C180.722 27.3265 180.822 27.7515 181.022 28.125C181.221 28.4985 181.508 28.7915 181.881 29.004C182.255 29.2165 182.705 29.3227 183.234 29.3227C183.601 29.3227 183.935 29.2712 184.238 29.1682C184.547 29.0652 184.811 28.917 185.03 28.7239C185.249 28.5242 185.41 28.286 185.513 28.0091H190.381C190.214 29.0394 189.818 29.9345 189.193 30.6943C188.569 31.4477 187.741 32.0337 186.711 32.4523C185.687 32.8644 184.489 33.0705 183.118 33.0705Z" fill="#F59E0B"/>
<path d="M192.557 32.8V17.9636H197.734V20.7841H197.889C198.159 19.7409 198.587 18.9778 199.173 18.4949C199.766 18.0119 200.458 17.7705 201.25 17.7705C201.482 17.7705 201.711 17.7898 201.936 17.8284C202.168 17.8606 202.39 17.9089 202.602 17.9733V22.5227C202.338 22.4326 202.013 22.365 201.627 22.3199C201.24 22.2748 200.909 22.2523 200.632 22.2523C200.11 22.2523 199.64 22.3714 199.222 22.6097C198.81 22.8415 198.484 23.1699 198.246 23.5949C198.008 24.0134 197.889 24.5061 197.889 25.0727V32.8H192.557Z" fill="#F59E0B"/>
</svg>
