<svg width="178" height="36" viewBox="0 0 178 36" fill="none" xmlns="http://www.w3.org/2000/svg">
<path fill-rule="evenodd" clip-rule="evenodd" d="M1.70854 8.04188C2.80251 6.94791 4.28624 6.33333 5.83333 6.33333H9.25167C10.7986 6.333 12.2821 5.7182 13.3758 4.62417L15.7908 2.20917C16.8845 1.11513 18.368 0.50033 19.915 0.5H26.7517C28.2986 0.50033 29.7821 1.11513 30.8758 2.20917L33.2908 4.62417C34.3845 5.7182 35.868 6.333 37.415 6.33333H40.8333C42.3804 6.33333 43.8642 6.94791 44.9581 8.04188C46.0521 9.13584 46.6667 10.6196 46.6667 12.1667V29.6667C46.6667 31.2138 46.0521 32.6975 44.9581 33.7915C43.8642 34.8854 42.3804 35.5 40.8333 35.5H16.9599V27.4327C18.7605 28.8719 21.006 29.6667 23.3333 29.6667C26.0408 29.6667 28.6373 28.5911 30.5517 26.6767C32.4661 24.7623 33.5417 22.1658 33.5417 19.4583C33.5417 16.7509 32.4661 14.1544 30.5517 12.24C28.6373 10.3255 26.0408 9.25 23.3333 9.25C21.0058 9.25 18.7603 10.0449 16.9596 11.4842C16.9413 10.4262 16.0779 9.57407 15.0154 9.57407C13.9415 9.57407 13.071 10.4446 13.071 11.5185V35.5H5.83333C4.28624 35.5 2.80251 34.8854 1.70854 33.7915C0.614582 32.6975 0 31.2138 0 29.6667V12.1667C0 10.6196 0.614582 9.13584 1.70854 8.04188ZM6.26047 11.7395C6.53396 12.013 6.90489 12.1667 7.29167 12.1667C7.67844 12.1667 8.04937 12.013 8.32286 11.7395C8.59635 11.466 8.75 11.0951 8.75 10.7083C8.75 10.3216 8.59635 9.95063 8.32286 9.67714C8.04937 9.40365 7.67844 9.25 7.29167 9.25C6.90489 9.25 6.53396 9.40365 6.26047 9.67714C5.98698 9.95063 5.83333 10.3216 5.83333 10.7083C5.83333 11.0951 5.98698 11.466 6.26047 11.7395Z" fill="white"/>
<path d="M29.7068 19.4583C29.7068 21.1344 29.041 22.7417 27.8559 23.9269C26.6707 25.112 25.0634 25.7778 23.3873 25.7778C21.7113 25.7778 20.1039 25.112 18.9188 23.9269C17.7337 22.7417 17.0679 21.1344 17.0679 19.4583C17.0679 17.7823 17.7337 16.1749 18.9188 14.9898C20.1039 13.8047 21.7113 13.1389 23.3873 13.1389C25.0634 13.1389 26.6707 13.8047 27.8559 14.9898C29.041 16.1749 29.7068 17.7823 29.7068 19.4583Z" fill="white"/>
<path d="M56.4156 29.2V11.8909H63.8869C65.1716 11.8909 66.2957 12.1445 67.2592 12.6516C68.2227 13.1587 68.972 13.8714 69.5073 14.7898C70.0426 15.7083 70.3102 16.7816 70.3102 18.0099C70.3102 19.2495 70.0341 20.3229 69.482 21.23C68.9354 22.1372 68.1663 22.8359 67.1746 23.3261C66.1886 23.8163 65.0364 24.0614 63.7179 24.0614H59.2554V20.4102H62.7713C63.3235 20.4102 63.794 20.3144 64.1827 20.1229C64.5771 19.9257 64.8786 19.6468 65.0871 19.2861C65.3012 18.9255 65.4082 18.5001 65.4082 18.0099C65.4082 17.5141 65.3012 17.0915 65.0871 16.7422C64.8786 16.3872 64.5771 16.1168 64.1827 15.9308C63.794 15.7393 63.3235 15.6435 62.7713 15.6435H61.1148V29.2H56.4156Z" fill="white"/>
<path d="M72.102 29.2V16.2182H76.7673V29.2H72.102ZM74.4347 14.8659C73.8036 14.8659 73.2627 14.6574 72.8119 14.2405C72.3612 13.8235 72.1358 13.3221 72.1358 12.7361C72.1358 12.1501 72.3612 11.6486 72.8119 11.2317C73.2627 10.8147 73.8036 10.6062 74.4347 10.6062C75.0714 10.6062 75.6123 10.8147 76.0574 11.2317C76.5081 11.6486 76.7335 12.1501 76.7335 12.7361C76.7335 13.3221 76.5081 13.8235 76.0574 14.2405C75.6123 14.6574 75.0714 14.8659 74.4347 14.8659Z" fill="white"/>
<path d="M85.3986 29.4366C83.99 29.4366 82.7842 29.1577 81.7813 28.5999C80.7784 28.0365 80.0093 27.2533 79.474 26.2504C78.9387 25.2418 78.6711 24.0726 78.6711 22.7429C78.6711 21.4132 78.9387 20.2468 79.474 19.2439C80.0093 18.2353 80.7784 17.4521 81.7813 16.8943C82.7842 16.3309 83.99 16.0491 85.3986 16.0491C86.672 16.0491 87.7736 16.2802 88.7032 16.7422C89.6386 17.1986 90.3626 17.8465 90.8753 18.6861C91.3881 19.52 91.6473 20.5004 91.6529 21.6273H87.3256C87.2636 20.9455 87.0664 20.4271 86.734 20.0722C86.4072 19.7116 85.9846 19.5312 85.4662 19.5312C85.0606 19.5312 84.7056 19.6496 84.4013 19.8862C84.0971 20.1172 83.8604 20.4694 83.6914 20.9427C83.5224 21.4103 83.4378 21.9991 83.4378 22.7091C83.4378 23.419 83.5224 24.0107 83.6914 24.4839C83.8604 24.9516 84.0971 25.3038 84.4013 25.5404C84.7056 25.7714 85.0606 25.8869 85.4662 25.8869C85.8099 25.8869 86.1142 25.8081 86.379 25.6503C86.6438 25.4869 86.858 25.2502 87.0214 24.9403C87.1904 24.6248 87.2918 24.2417 87.3256 23.7909H91.6529C91.636 24.9347 91.374 25.932 90.8669 26.7828C90.3598 27.628 89.6414 28.2816 88.7117 28.7436C87.7876 29.2056 86.6833 29.4366 85.3986 29.4366Z" fill="white"/>
<path d="M93.5102 29.2V11.8909H98.2093V18.8889H98.4459L103.652 11.8909H109.129L103.28 19.5989L109.264 29.2H103.652L99.7644 22.7091L98.2093 24.7375V29.2H93.5102Z" fill="white"/>
<path d="M115.859 29.4366C114.472 29.4366 113.278 29.1718 112.275 28.6422C111.278 28.1069 110.509 27.3406 109.968 26.3433C109.432 25.3404 109.165 24.1402 109.165 22.7429C109.165 21.4019 109.435 20.2299 109.976 19.227C110.517 18.2241 111.281 17.4437 112.267 16.8859C113.253 16.3281 114.416 16.0491 115.757 16.0491C116.738 16.0491 117.625 16.2013 118.419 16.5055C119.214 16.8098 119.893 17.2521 120.456 17.8325C121.02 18.4072 121.454 19.1058 121.758 19.9285C122.062 20.7511 122.214 21.678 122.214 22.7091V23.7909H110.619V21.2216H117.921C117.915 20.8497 117.819 20.5229 117.633 20.2412C117.453 19.9538 117.208 19.7313 116.898 19.5735C116.594 19.4101 116.247 19.3284 115.859 19.3284C115.481 19.3284 115.135 19.4101 114.819 19.5735C114.503 19.7313 114.25 19.951 114.058 20.2327C113.872 20.5145 113.774 20.8441 113.763 21.2216V23.9937C113.763 24.4107 113.85 24.7826 114.025 25.1094C114.199 25.4362 114.45 25.6925 114.777 25.8785C115.104 26.0644 115.498 26.1574 115.96 26.1574C116.281 26.1574 116.574 26.1123 116.839 26.0222C117.109 25.932 117.34 25.8024 117.532 25.6334C117.724 25.4587 117.864 25.2502 117.955 25.008H122.214C122.068 25.9095 121.721 26.6927 121.175 27.3575C120.628 28.0168 119.904 28.5295 119.003 28.8957C118.107 29.2563 117.059 29.4366 115.859 29.4366Z" fill="white"/>
<path d="M130.338 29.4366C128.952 29.4366 127.758 29.1718 126.755 28.6422C125.758 28.1069 124.989 27.3406 124.448 26.3433C123.912 25.3404 123.645 24.1402 123.645 22.7429C123.645 21.4019 123.915 20.2299 124.456 19.227C124.997 18.2241 125.76 17.4437 126.746 16.8859C127.733 16.3281 128.896 16.0491 130.237 16.0491C131.217 16.0491 132.105 16.2013 132.899 16.5055C133.694 16.8098 134.373 17.2521 134.936 17.8325C135.5 18.4072 135.933 19.1058 136.238 19.9285C136.542 20.7511 136.694 21.678 136.694 22.7091V23.7909H125.098V21.2216H132.401C132.395 20.8497 132.299 20.5229 132.113 20.2412C131.933 19.9538 131.688 19.7313 131.378 19.5735C131.074 19.4101 130.727 19.3284 130.338 19.3284C129.961 19.3284 129.614 19.4101 129.299 19.5735C128.983 19.7313 128.73 19.951 128.538 20.2327C128.352 20.5145 128.254 20.8441 128.242 21.2216V23.9937C128.242 24.4107 128.33 24.7826 128.504 25.1094C128.679 25.4362 128.93 25.6925 129.257 25.8785C129.583 26.0644 129.978 26.1574 130.44 26.1574C130.761 26.1574 131.054 26.1123 131.319 26.0222C131.589 25.932 131.82 25.8024 132.012 25.6334C132.203 25.4587 132.344 25.2502 132.434 25.008H136.694C136.548 25.9095 136.201 26.6927 135.655 27.3575C135.108 28.0168 134.384 28.5295 133.482 28.8957C132.587 29.2563 131.539 29.4366 130.338 29.4366Z" fill="white"/>
<path d="M138.598 34.0682V16.2182H143.229V18.4832H143.331C143.5 18.0437 143.748 17.6409 144.075 17.2746C144.401 16.9028 144.807 16.607 145.292 16.3872C145.776 16.1618 146.34 16.0491 146.982 16.0491C147.838 16.0491 148.653 16.2773 149.425 16.7337C150.202 17.1901 150.833 17.9085 151.318 18.8889C151.808 19.8693 152.053 21.1427 152.053 22.7091C152.053 24.2079 151.819 25.4503 151.352 26.4363C150.889 27.4223 150.27 28.1576 149.492 28.6422C148.72 29.1268 147.872 29.369 146.948 29.369C146.34 29.369 145.796 29.2704 145.317 29.0732C144.844 28.8704 144.438 28.5971 144.1 28.2534C143.768 27.9041 143.511 27.5097 143.331 27.0702H143.263V34.0682H138.598ZM143.162 22.7091C143.162 23.3402 143.243 23.8867 143.407 24.3487C143.576 24.8051 143.813 25.1601 144.117 25.4136C144.427 25.6616 144.796 25.7855 145.224 25.7855C145.652 25.7855 146.016 25.6644 146.314 25.4221C146.619 25.1742 146.85 24.822 147.007 24.3656C147.171 23.9036 147.252 23.3514 147.252 22.7091C147.252 22.0668 147.171 21.5174 147.007 21.061C146.85 20.599 146.619 20.2468 146.314 20.0045C146.016 19.7566 145.652 19.6327 145.224 19.6327C144.796 19.6327 144.427 19.7566 144.117 20.0045C143.813 20.2468 143.576 20.599 143.407 21.061C143.243 21.5174 143.162 22.0668 143.162 22.7091Z" fill="white"/>
<path d="M160.228 29.4366C158.842 29.4366 157.647 29.1718 156.644 28.6422C155.647 28.1069 154.878 27.3406 154.337 26.3433C153.802 25.3404 153.534 24.1402 153.534 22.7429C153.534 21.4019 153.805 20.2299 154.346 19.227C154.886 18.2241 155.65 17.4437 156.636 16.8859C157.622 16.3281 158.785 16.0491 160.126 16.0491C161.107 16.0491 161.994 16.2013 162.789 16.5055C163.583 16.8098 164.262 17.2521 164.826 17.8325C165.389 18.4072 165.823 19.1058 166.127 19.9285C166.431 20.7511 166.584 21.678 166.584 22.7091V23.7909H154.988V21.2216H162.29C162.284 20.8497 162.189 20.5229 162.003 20.2412C161.822 19.9538 161.577 19.7313 161.267 19.5735C160.963 19.4101 160.617 19.3284 160.228 19.3284C159.85 19.3284 159.504 19.4101 159.188 19.5735C158.873 19.7313 158.619 19.951 158.428 20.2327C158.242 20.5145 158.143 20.8441 158.132 21.2216V23.9937C158.132 24.4107 158.219 24.7826 158.394 25.1094C158.569 25.4362 158.819 25.6925 159.146 25.8785C159.473 26.0644 159.867 26.1574 160.329 26.1574C160.65 26.1574 160.943 26.1123 161.208 26.0222C161.479 25.932 161.71 25.8024 161.901 25.6334C162.093 25.4587 162.234 25.2502 162.324 25.008H166.584C166.437 25.9095 166.091 26.6927 165.544 27.3575C164.997 28.0168 164.273 28.5295 163.372 28.8957C162.476 29.2563 161.428 29.4366 160.228 29.4366Z" fill="white"/>
<path d="M168.487 29.2V16.2182H173.017V18.6861H173.153C173.389 17.7733 173.764 17.1056 174.277 16.683C174.795 16.2604 175.401 16.0491 176.094 16.0491C176.297 16.0491 176.497 16.0661 176.694 16.0999C176.897 16.128 177.091 16.1703 177.277 16.2266V20.2074C177.046 20.1285 176.762 20.0693 176.423 20.0299C176.085 19.9905 175.795 19.9707 175.553 19.9707C175.097 19.9707 174.685 20.075 174.319 20.2835C173.958 20.4863 173.674 20.7736 173.465 21.1455C173.257 21.5118 173.153 21.9428 173.153 22.4386V29.2H168.487Z" fill="white"/>
</svg>
